<svg width="36" height="37" viewBox="0 0 36 37" fill="none" xmlns="http://www.w3.org/2000/svg">
<path d="M15.5323 28.9518C13.7212 27.1639 12.982 25.2688 13.27 23.1551L13.3139 22.8366L12.9951 22.8837C10.901 23.2145 9.00429 22.5073 7.18561 20.7119L7.06704 20.5948C3.51548 17.0887 4.08187 12.8763 8.7616 8.09396L15.8132 0.887695L18.2095 3.25334L10.9534 10.6686C8.44103 13.236 7.89344 15.1487 9.28081 16.5183L11.2306 18.4432C12.6179 19.8127 14.5125 19.2298 17.0187 16.6686L24.281 9.24709L26.6748 11.6102L19.4186 19.0255C18.5028 19.9614 15.6913 22.8346 17.7395 24.8566L19.7044 26.7964C21.7502 28.8159 24.5556 25.949 25.4775 25.0068L32.7336 17.5916L35.1426 19.9697L28.0909 27.1759C23.4112 31.9583 19.2302 32.6023 15.666 29.0838L15.5323 28.9518Z" fill="white"/>
<path d="M2.58289 33.091C2.58347 33.0303 2.57142 32.7879 2.57346 32.5743C2.54269 31.2829 3.07526 28.4756 3.57916 27.2127C3.6529 27.0183 3.8602 26.5461 4.02131 26.3399C4.18229 26.1484 4.37113 25.9983 4.58932 25.8899C4.87211 25.7646 5.1763 25.735 5.44281 25.8103C5.62371 25.8673 6.09073 26.1264 6.09761 26.1327C6.60099 26.4251 7.33268 27.0028 8.09247 27.6992C8.8164 28.3627 9.4318 29.0197 9.79565 29.4916C9.795 29.5068 10.1954 30.0428 10.2723 30.2981C10.4121 30.7653 10.2844 31.3105 9.94792 31.7108L9.91883 31.7454C9.69231 31.9994 9.04469 32.3764 9.03781 32.3701C7.9475 33.0026 5.43753 33.9214 4.17105 34.0545C4.17105 34.0545 3.83045 34.1067 3.65054 34.1002C3.38281 34.102 3.13837 34.0004 2.95211 33.8297C2.74422 33.6392 2.61628 33.3835 2.58289 33.091Z" fill="white"/>
</svg>
