<svg width="23" height="19" viewBox="0 0 23 19" fill="none" xmlns="http://www.w3.org/2000/svg">
<path d="M18.3341 11.5657C18.0465 11.7978 17.9144 12.1336 17.9799 12.4629L18.9668 17.0136C19.0501 17.3993 18.8547 17.7896 18.4673 18.0125C18.0876 18.2438 17.5825 18.2715 17.1684 18.0865L12.2518 15.9499C12.0808 15.8741 11.891 15.8334 11.6967 15.8287H11.3959C11.2915 15.8417 11.1894 15.8694 11.0961 15.912L6.17835 18.0588C5.93524 18.1605 5.65993 18.1966 5.39017 18.1605C4.73299 18.0569 4.2945 17.5353 4.40218 16.9849L5.39017 12.4342C5.45567 12.1021 5.32357 11.7645 5.03605 11.5287L1.02744 8.29136C0.692189 8.02035 0.575627 7.61337 0.728822 7.24617C0.877577 6.87989 1.25723 6.61258 1.71571 6.55246L7.23296 5.88557C7.65258 5.8495 8.02114 5.63676 8.20985 5.32228L10.641 1.16928C10.6987 1.07679 10.7731 0.991691 10.863 0.919545L10.9629 0.854799C11.0151 0.806702 11.075 0.76693 11.1417 0.734556L11.2627 0.697559L11.4514 0.632812H11.9187C12.3361 0.668885 12.7036 0.876998 12.8956 1.18778L15.359 5.32228C15.5366 5.62474 15.8818 5.8347 16.2804 5.88557L21.7976 6.55246C22.2638 6.60796 22.6535 6.87619 22.8078 7.24617C22.9532 7.61707 22.8278 8.02405 22.4859 8.29136L18.3341 11.5657Z" fill="white"/>
</svg>
