<svg width="756" height="159" viewBox="0 0 756 159" fill="none" xmlns="http://www.w3.org/2000/svg">
<path d="M174.507 73.8733C158.698 73.8733 147.182 70.8515 139.278 64.6328L138.089 63.6944L136.878 64.6328C129.017 70.8515 117.524 73.8733 101.649 73.8733H100.614C69.6124 73.8733 53.8257 61.4994 53.8257 37.117V0.376343H74.7429V38.1825C74.7429 51.2725 80.6214 57.6344 92.7317 57.6344H109.751C121.861 57.6344 127.74 51.2725 127.74 38.2144V0.376343H148.635V38.1825C148.635 42.9543 148.635 57.6028 166.514 57.6028H183.666C201.523 57.6028 201.523 42.9859 201.523 38.1825V0.376343H222.55V37.117C222.55 61.4994 206.785 73.8733 175.674 73.8733H174.507Z" fill="white"/>
<path d="M137.919 63.8707C137.968 63.8117 139.339 63.0755 139.42 63.0402C132.44 56.9486 127.747 48.888 127.703 37.4524V38.3748C127.703 51.4328 121.626 57.7951 109.538 57.7951H92.4957C80.408 57.7951 74.5069 51.4328 74.5069 38.3748V0.568604H53.6118V37.3092C53.6118 61.6917 69.3769 74.0501 100.51 74.0501H101.523C117.332 74.0501 128.848 71.0279 136.752 64.8251L137.963 63.8707H137.919Z" fill="white"/>
<path d="M365.192 74.4184V43.4354H269.149V74.4184H248.519V0.380371H269.149V31.4747H365.192V0.380371H385.824V74.4184H365.192Z" fill="white"/>
<path d="M432.657 0.380371H412.025V74.4184H432.657V0.380371Z" fill="white"/>
<path d="M498.07 74.4184V13.8042H455.597V0.380371H562.123V13.8042H518.699V74.4184H498.07Z" fill="white"/>
<path d="M585.089 74.4184V0.380371H701.015V13.4702H605.723V31.6974H701.015V43.6581H605.723V61.3284H701.015V74.4184H585.089Z" fill="white"/>
<path d="M0.384766 157.557V158.577H1.67129H22.5451H23.8317V157.557V138.425H78.7421C90.4021 138.425 103.118 137.68 112.948 133.875C117.89 131.961 122.137 129.262 125.139 125.479C128.142 121.695 129.846 116.897 129.846 110.856C129.846 104.815 128.136 100.017 125.126 96.2329C122.116 92.45 117.862 89.7509 112.914 87.8376C103.073 84.0323 90.3573 83.2872 78.7421 83.2872H1.67129H0.384766V84.3073V157.557ZM81.2894 123.008H23.8317V98.799H81.2894C87.1374 98.799 93.1166 99.1691 97.6061 100.875C99.8225 101.717 101.639 102.872 102.908 104.449C104.177 106.026 104.957 108.095 104.957 110.84C104.957 113.584 104.172 115.662 102.895 117.252C101.617 118.843 99.7896 120.014 97.5654 120.872C93.0647 122.608 87.0839 123.008 81.2894 123.008Z" stroke="white" stroke-width="0.5"/>
<path d="M150.154 157.557V158.577H151.442H266.481H267.769V157.557V144.416V143.396H266.481H173.476V128.247H266.481H267.769V127.227V115.205V114.185H266.481H173.476V98.4677H266.481H267.769V97.4476V84.3073V83.2872H266.481H151.442H150.154V84.3073V157.557Z" stroke="white" stroke-width="0.5"/>
<path d="M389.257 158.271L389.636 158.577H390.177H428.096H429.384V157.557V84.3073V83.2872H428.096H407.354H406.065V84.3073V144.409L330.742 83.5928L330.363 83.2872H329.823H291.903H290.615V84.3073V157.557V158.577H291.903H312.646H313.934V157.557V97.455L389.257 158.271Z" stroke="white" stroke-width="0.5"/>
<path d="M506.711 158.577C487.816 158.577 473.529 155.566 463.954 149.272C454.332 142.946 449.692 133.457 449.692 120.924C449.692 108.391 454.332 98.9059 463.954 92.5843C473.529 86.2944 487.815 83.2872 506.71 83.2872H531.77C547.716 83.2872 560.335 85.4278 569.616 89.877C578.948 94.3498 584.794 101.102 587.27 110.104L587.61 111.34H586.006H563.41H562.429L562.166 110.595C560.804 106.742 558.215 103.802 554.572 101.815C550.915 99.8215 546.096 98.7358 540.179 98.7358H498.371C492.888 98.7358 487.038 99.713 482.564 102.876C478.118 106.02 474.803 111.487 474.803 120.861C474.803 130.236 478.119 135.737 482.569 138.912C487.045 142.106 492.896 143.113 498.371 143.113H540.112C547.572 143.113 552.437 141.589 555.713 139.413C559.004 137.226 560.835 134.283 561.991 131.234L562.27 130.508H563.229H586.006H587.615L587.265 131.748C584.757 140.739 578.912 147.49 569.59 151.965C560.319 156.416 547.716 158.561 531.775 158.561L506.711 158.577ZM506.711 158.577L531.77 158.561" stroke="white" stroke-width="0.5"/>
<path d="M631.615 84.3073V83.2872H630.306H609.232H607.923V84.3073V157.557V158.577H609.232H630.306H631.615V157.557V84.3073Z" stroke="white" stroke-width="0.5"/>
<path d="M654.461 157.557V158.577H655.75H770.789H772.077V157.557V144.416V143.396H770.789H677.936V84.3073V83.2872H676.648H655.75H654.461V84.3073V157.557Z" stroke="white" stroke-width="0.5"/>
</svg>
