<svg width="20" height="18" viewBox="0 0 20 18" fill="none" xmlns="http://www.w3.org/2000/svg">
<ellipse cx="10" cy="9" rx="10" ry="9" fill="black"/>
<path d="M12.9975 9.93639C12.4228 10.4308 11.8561 10.6099 11.2639 10.4846L11.1747 10.4655L11.1767 10.5596C11.1959 11.178 10.9263 11.7185 10.3492 12.215L10.3116 12.2474C9.1848 13.217 8.00436 12.9694 6.80901 11.5086L5.00781 9.30737L5.76811 8.65318L7.62154 10.9182C8.26328 11.7025 8.78884 11.8998 9.22902 11.521L9.84764 10.9887C10.2878 10.61 10.1896 10.045 9.54944 9.26263L7.69443 6.99569L8.45392 6.34219L10.3074 8.60722C10.5413 8.89311 11.2594 9.77072 11.9093 9.21156L12.5327 8.67513C13.1818 8.11665 12.4652 7.24093 12.2297 6.95315L10.3763 4.68812L11.1406 4.03048L12.9418 6.23168C14.1371 7.69247 14.1707 8.92687 13.0399 9.89988L12.9975 9.93639Z" fill="white"/>
<path d="M11.1773 10.4817C11.1761 10.4767 11.1899 10.3897 11.1911 10.385C10.6388 10.2384 10.073 9.90225 9.51077 9.21849L9.55599 9.27376C10.1962 10.0561 10.2872 10.6273 9.84781 11.0054L9.22838 11.5384C8.78902 11.9164 8.26262 11.7198 7.62245 10.9375L5.76901 8.67243L5.00952 9.32593L6.81072 11.5271C8.00607 12.9879 9.18496 13.2353 10.3166 12.2616L10.3534 12.2299C10.928 11.7355 11.1984 11.1942 11.1816 10.5754L11.1789 10.4804L11.1773 10.4817Z" fill="white"/>
<path d="M14.2938 12.1261C14.2994 12.1382 14.3247 12.1851 14.3445 12.2277C14.4727 12.481 14.6305 13.0935 14.6483 13.3963C14.6518 13.4426 14.6546 13.5578 14.6417 13.6153C14.6273 13.67 14.6034 13.7193 14.5697 13.7634C14.5246 13.8175 14.4661 13.8548 14.4053 13.8673C14.3635 13.8747 14.2449 13.8715 14.2429 13.871C14.1139 13.8649 13.9119 13.8257 13.693 13.7659C13.4845 13.7089 13.2985 13.642 13.1806 13.5859C13.1793 13.5828 13.048 13.5177 13.0084 13.4749C12.9361 13.3966 12.9103 13.2751 12.9403 13.1609L12.9429 13.151C12.9645 13.0772 13.0594 12.9354 13.0614 12.936C13.2213 12.6977 13.6402 12.256 13.8828 12.0988C13.8828 12.0988 13.9465 12.0532 13.9834 12.0359C14.0371 12.0079 14.096 12.0028 14.1496 12.0175C14.2095 12.0339 14.2594 12.0714 14.2938 12.1261Z" fill="white"/>
</svg>
